# xmcd
#
# Track frame offsets:
#	150
#	13064
#	37716
#	51127
#	82145
#	104705
#	125395
#
# Disc length: 1956 seconds
#
# Revision: 0
# Processed by: cddbd v1.4PL0 Copyright (c) Steve Scherf et al.
# Submitted via: EasyCDDAExtractor 4.6.9.1
#
DISCID=5507a207
DTITLE=Mighty Servant - There's Life
DYEAR=1996
DGENRE=Blues
TTITLE0=Lock It In
TTITLE1=Sometimes I Reckon I Had It Bad
TTITLE2=What I Mean
TTITLE3=Right Now
TTITLE4=Storm
TTITLE5=On My Way Home
TTITLE6=Archangel
EXTD=Ashley Davies (Drums]\nMatt Walker (Guitars]\nAndrew Entsch (Bass]\nDan R
EXTD=ichardson (Trumpets]\nIan Bell (Trombone]\nMighty Servant (Backing Vocals
EXTD=)
EXTT0=
EXTT1=
EXTT2=
EXTT3=
EXTT4=
EXTT5=
EXTT6=
PLAYORDER=
